<svg width="22" height="13" viewBox="0 0 22 13" fill="none" xmlns="http://www.w3.org/2000/svg">
<path fill-rule="evenodd" clip-rule="evenodd" d="M21.8325 1.58352L20.0255 0.725521L19.5965 1.62852C18.2595 4.4425 16.1855 6.4085 13.7955 7.2305L13.5945 7.2885C12.8375 7.5265 12.0535 7.6615 11.2495 7.6615C7.81748 7.6605 4.69748 5.4055 2.90348 1.62852L2.47448 0.725521L0.66748 1.58352L1.09648 2.48652C1.69748 3.75052 2.43348 4.8655 3.26948 5.8235L1.05648 8.0385L2.47048 9.4515L4.69648 7.2245C5.59548 7.9685 6.57648 8.5515 7.61448 8.9615L6.75348 11.9245L8.67448 12.4825L9.5385 9.5075C10.0985 9.6065 10.6685 9.6615 11.2485 9.6615H11.2515C11.8055 9.6615 12.3505 9.6125 12.8855 9.5225L13.7455 12.4825L15.6655 11.9245L14.8135 8.9885C15.8615 8.5835 16.8535 8.0055 17.7615 7.2615L19.9505 9.4515L21.3655 8.0385L19.1935 5.8655C20.0455 4.8985 20.7935 3.76952 21.4035 2.48652L21.8325 1.58352Z" fill="#333333"/>
</svg>
