<svg width="20" height="17" viewBox="0 0 20 17" fill="none" xmlns="http://www.w3.org/2000/svg">
<path fill-rule="evenodd" clip-rule="evenodd" d="M10.003 0.000499725C14.139 0.00349973 17.853 2.9025 19.939 7.7565C20.021 7.9455 20.021 8.1595 19.939 8.3485C17.854 13.2035 14.139 16.1025 10.003 16.1055H9.99699C5.86099 16.1025 2.14699 13.2035 0.0609941 8.3485C-0.0200059 8.1595 -0.0200059 7.9455 0.0609941 7.7565C2.14699 2.9025 5.86199 0.00349973 9.99699 0.000499725H10.003ZM9.99999 1.5005C6.56399 1.5015 3.42999 3.9445 1.56999 8.0525C3.42999 12.1615 6.56299 14.6045 9.99999 14.6055C13.437 14.6045 16.57 12.1615 18.43 8.0525C16.57 3.9445 13.437 1.5015 9.99999 1.5005ZM9.99969 4.1413C12.1567 4.1413 13.9117 5.8963 13.9117 8.0533C13.9117 10.2093 12.1567 11.9633 9.99969 11.9633C7.84269 11.9633 6.08869 10.2093 6.08869 8.0533C6.08869 5.8963 7.84269 4.1413 9.99969 4.1413ZM9.99969 5.6413C8.66969 5.6413 7.58869 6.7233 7.58869 8.0533C7.58869 9.3823 8.66969 10.4633 9.99969 10.4633C11.3297 10.4633 12.4117 9.3823 12.4117 8.0533C12.4117 6.7233 11.3297 5.6413 9.99969 5.6413Z" fill="black"/>
</svg>
