<svg width="27" height="26" viewBox="0 0 27 26" fill="none" xmlns="http://www.w3.org/2000/svg">
<path d="M13.5 17.3334V8.66675" stroke="white" stroke-linecap="round"/>
<path d="M9.16663 15.1666V10.8333" stroke="white" stroke-linecap="round"/>
<path d="M17.8334 15.1666V10.8333" stroke="white" stroke-linecap="round"/>
<path d="M18.9166 3.61605C17.3231 2.6943 15.4731 2.16675 13.5 2.16675C7.51687 2.16675 2.66663 7.01699 2.66663 13.0001C2.66663 14.7331 3.07355 16.371 3.79704 17.8236C3.98931 18.2096 4.0533 18.6509 3.94184 19.0674L3.2966 21.479C3.01649 22.5258 3.97422 23.4835 5.02109 23.2035L7.43263 22.5582C7.84922 22.4467 8.29044 22.5108 8.67645 22.703C10.129 23.4265 11.7669 23.8334 13.5 23.8334C19.483 23.8334 24.3333 18.9831 24.3333 13.0001C24.3333 11.0269 23.8057 9.17686 22.884 7.58341" stroke="white" stroke-width="2" stroke-linecap="round"/>
</svg>
