<svg width="26" height="26" viewBox="0 0 26 26" fill="none" xmlns="http://www.w3.org/2000/svg">
<path d="M19.5 12.9999H18.6318C17.733 12.9999 17.2836 12.9999 16.9111 13.2109C16.5386 13.4218 16.3073 13.8071 15.8449 14.5778L15.8115 14.6336C15.3807 15.3515 15.1653 15.7105 14.852 15.7046C14.5386 15.6987 14.3367 15.3319 13.9333 14.5983L12.1054 11.2748C11.7291 10.5908 11.5411 10.2487 11.2406 10.2325C10.9402 10.2163 10.7163 10.5361 10.2686 11.1756L9.96204 11.6137C9.48654 12.2929 9.24879 12.6326 8.89604 12.8162C8.5433 12.9999 8.1287 12.9999 7.29953 12.9999H6.5" stroke="white" stroke-linecap="round"/>
<path d="M13 5.95906L12.4145 6.5225C12.5677 6.68164 12.7791 6.77156 13 6.77156C13.2208 6.77156 13.4322 6.68164 13.5854 6.5225L13 5.95906ZM2.87801 14.5128C3.11517 14.8937 3.61624 15.0103 3.99718 14.7732C4.37811 14.536 4.49466 14.0349 4.25749 13.654L2.87801 14.5128ZM7.07379 17.0862C6.75611 16.7693 6.24167 16.7699 5.92474 17.0876C5.60782 17.4052 5.60844 17.9197 5.92613 18.2366L7.07379 17.0862ZM2.97913 9.89857C2.97913 6.86211 4.34111 4.97807 6.0441 4.33028C7.75171 3.68073 10.1305 4.14946 12.4145 6.5225L13.5854 5.39562C10.9946 2.70389 7.95672 1.86415 5.46636 2.81145C2.97139 3.7605 1.35413 6.37858 1.35413 9.89857H2.97913ZM16.7944 21.125C18.4111 19.8504 20.349 18.1417 21.8899 16.2325C23.4136 14.3447 24.6458 12.143 24.6458 9.89852H23.0208C23.0208 11.5787 22.0758 13.4149 20.6254 15.2119C19.1923 16.9875 17.3592 18.6104 15.7885 19.8488L16.7944 21.125ZM24.6458 9.89852C24.6458 6.37857 23.0285 3.76049 20.5336 2.81144C18.0432 1.86417 15.0053 2.70389 12.4145 5.39562L13.5854 6.5225C15.8694 4.14946 18.2482 3.68073 19.9558 4.33028C21.6588 4.97806 23.0208 6.8621 23.0208 9.89852H24.6458ZM9.2055 21.1249C10.586 22.2132 11.5376 23.0056 13 23.0056V21.3806C12.2084 21.3806 11.717 21.0356 10.2115 19.8488L9.2055 21.1249ZM15.7885 19.8488C14.283 21.0356 13.7915 21.3806 13 21.3806V23.0056C14.4623 23.0056 15.4139 22.2132 16.7944 21.125L15.7885 19.8488ZM4.25749 13.654C3.44933 12.3559 2.97913 11.0839 2.97913 9.89857H1.35413C1.35413 11.5018 1.98304 13.0754 2.87801 14.5128L4.25749 13.654ZM10.2115 19.8488C9.21813 19.0657 8.11513 18.125 7.07379 17.0862L5.92613 18.2366C7.02372 19.3316 8.17717 20.3142 9.2055 21.1249L10.2115 19.8488Z" fill="white"/>
</svg>
