<svg width="27" height="26" viewBox="0 0 27 26" fill="none" xmlns="http://www.w3.org/2000/svg">
<path d="M10.25 17.3333C11.1712 18.0161 12.2917 18.4166 13.5 18.4166C14.7084 18.4166 15.8287 18.0161 16.75 17.3333" stroke="white" stroke-linecap="round"/>
<path d="M23.9388 14.0378L23.6369 16.1365C23.1088 19.8063 22.8448 21.6412 21.5719 22.7373C20.2988 23.8334 18.4319 23.8334 14.6982 23.8334H12.3017C8.56794 23.8334 6.70105 23.8334 5.42807 22.7373C4.15508 21.6412 3.89106 19.8063 3.36303 16.1365L3.06103 14.0378C2.64997 11.1809 2.44444 9.75256 3.02994 8.53128C3.61544 7.30998 4.86166 6.56762 7.35411 5.08288L8.85435 4.18919C11.1177 2.8409 12.2495 2.16675 13.5 2.16675C14.7504 2.16675 15.8822 2.8409 18.1455 4.18919L19.6458 5.08288C22.1382 6.56762 23.3845 7.30998 23.9699 8.53128" stroke="white" stroke-width="2" stroke-linecap="round"/>
</svg>
