<svg width="26" height="26" viewBox="0 0 26 26" fill="none" xmlns="http://www.w3.org/2000/svg">
<path d="M9.74996 10.8334C12.1432 10.8334 14.0833 8.89332 14.0833 6.50008C14.0833 4.10685 12.1432 2.16675 9.74996 2.16675C7.35673 2.16675 5.41663 4.10685 5.41663 6.50008C5.41663 8.89332 7.35673 10.8334 9.74996 10.8334Z" stroke="white" stroke-width="2"/>
<path d="M16.25 9.75C18.045 9.75 19.5 8.29492 19.5 6.5C19.5 4.70508 18.045 3.25 16.25 3.25" stroke="white" stroke-width="2" stroke-linecap="round"/>
<path d="M6.37987 22.2996C7.39508 22.5879 8.5394 22.7499 9.74996 22.7499C13.9381 22.7499 17.3333 20.8098 17.3333 18.4166C17.3333 16.0234 13.9381 14.0833 9.74996 14.0833C5.5618 14.0833 2.16663 16.0234 2.16663 18.4166C2.16663 18.7907 2.24958 19.1537 2.40553 19.4999" stroke="white" stroke-width="2" stroke-linecap="round"/>
<path d="M19.5 15.1667C21.4004 15.5835 22.75 16.6389 22.75 17.8751C22.75 18.9902 21.6518 19.9582 20.0417 20.443" stroke="white" stroke-width="2" stroke-linecap="round"/>
</svg>
