<svg width="27" height="26" viewBox="0 0 27 26" fill="none" xmlns="http://www.w3.org/2000/svg">
<path d="M12.4167 10.8334C14.8099 10.8334 16.75 8.89332 16.75 6.50008C16.75 4.10685 14.8099 2.16675 12.4167 2.16675C10.0235 2.16675 8.08337 4.10685 8.08337 6.50008C8.08337 8.89332 10.0235 10.8334 12.4167 10.8334Z" stroke="white" stroke-width="2"/>
<path d="M21.0806 19.4999C21.0833 19.322 21.0833 19.1413 21.0833 18.9583C21.0833 16.2658 17.2032 14.0833 12.4167 14.0833C7.6302 14.0833 3.75 16.2658 3.75 18.9583C3.75 21.6507 3.75 23.8333 12.4167 23.8333C14.8336 23.8333 16.5765 23.6635 17.8333 23.3603" stroke="white" stroke-width="2" stroke-linecap="round"/>
</svg>
