<svg width="20" height="20" viewBox="0 0 20 20" fill="none" xmlns="http://www.w3.org/2000/svg">
<path fill-rule="evenodd" clip-rule="evenodd" d="M5.39062 12.3726C6.98687 12.3726 8.28125 13.6666 8.28125 15.2631C8.28125 16.8594 6.98687 18.1538 5.39062 18.1538C3.79406 18.1538 2.5 16.8594 2.5 15.2631C2.5 13.6669 3.79437 12.3726 5.39062 12.3726Z" stroke="white" stroke-width="1.5" stroke-linecap="round" stroke-linejoin="round"/>
<path fill-rule="evenodd" clip-rule="evenodd" d="M15.026 12.3726C16.6222 12.3726 17.9166 13.6666 17.9166 15.2631C17.9166 16.8594 16.6222 18.1538 15.026 18.1538C13.4295 18.1538 12.1354 16.8594 12.1354 15.2631C12.1354 13.6669 13.4298 12.3726 15.026 12.3726Z" stroke="white" stroke-width="1.5" stroke-linecap="round" stroke-linejoin="round"/>
<path fill-rule="evenodd" clip-rule="evenodd" d="M10.2084 2.7373C11.8046 2.7373 13.099 4.03136 13.099 5.62793C13.099 7.22418 11.8046 8.51858 10.2084 8.51858C8.61179 8.51858 7.31775 7.22418 7.31775 5.62793C7.31775 4.03168 8.61212 2.7373 10.2084 2.7373Z" stroke="white" stroke-width="1.5" stroke-linecap="round" stroke-linejoin="round"/>
</svg>
