<svg width="115" height="18" viewBox="0 0 115 18" fill="none" xmlns="http://www.w3.org/2000/svg">
<line y1="8.70312" x2="30" y2="8.70312" stroke="#333333"/>
<path d="M47.2647 12.973L50.9437 7.06676H52.296V14.7031H51.1227V8.79688L47.4636 14.7031H46.0914V7.06676H47.2647V12.973ZM53.7688 14.7031V13.6094H54.0472C54.2759 13.6094 54.4665 13.5646 54.619 13.4751C54.7714 13.3823 54.8941 13.2216 54.9869 12.9929C55.083 12.7609 55.1559 12.4394 55.2056 12.0284C55.2586 11.6141 55.2968 11.0871 55.32 10.4474L55.4592 7.06676H60.5501V14.7031H59.3768V8.16051H56.5728L56.4535 10.8849C56.427 11.5114 56.3706 12.0632 56.2844 12.5405C56.2016 13.0144 56.074 13.4122 55.9016 13.7337C55.7326 14.0552 55.5072 14.2971 55.2255 14.4595C54.9438 14.6219 54.5908 14.7031 54.1665 14.7031H53.7688ZM63.8761 12.973L67.555 7.06676H68.9073V14.7031H67.734V8.79688L64.0749 14.7031H62.7028V7.06676H63.8761V12.973Z" fill="#333333"/>
<line x1="85" y1="8.70312" x2="115" y2="8.70312" stroke="#333333"/>
</svg>
