<svg width="20" height="21" viewBox="0 0 20 21" fill="none" xmlns="http://www.w3.org/2000/svg">
<g clip-path="url(#clip0_19_4100)">
<path d="M19.9905 10.4259C19.9905 9.58726 19.9224 8.97531 19.7752 8.3407H10.1992V12.1257H15.8201C15.7068 13.0663 15.0948 14.4829 13.7349 15.4348L13.7159 15.5615L16.7436 17.907L16.9534 17.928C18.8798 16.1487 19.9905 13.5309 19.9905 10.4259Z" fill="#272F32"/>
<path d="M10.1992 20.3984C12.953 20.3984 15.2648 19.4918 16.9534 17.928L13.7349 15.4348C12.8737 16.0354 11.7177 16.4547 10.1992 16.4547C7.50211 16.4547 5.21297 14.6755 4.39695 12.2164L4.27734 12.2266L1.12906 14.663L1.08789 14.7775C2.76508 18.1092 6.21015 20.3984 10.1992 20.3984Z" fill="#272F32"/>
<path d="M4.39695 12.2164C4.18164 11.5818 4.05703 10.9018 4.05703 10.1992C4.05703 9.49657 4.18164 8.81665 4.38562 8.18204L4.37992 8.04688L1.19219 5.57126L1.08789 5.62087C0.396641 7.00345 0 8.55602 0 10.1992C0 11.8424 0.396641 13.3949 1.08789 14.7775L4.39695 12.2164Z" fill="#272F32"/>
<path d="M10.1992 3.94367C12.1144 3.94367 13.4063 4.77094 14.1429 5.46227L17.0213 2.6518C15.2535 1.00859 12.953 0 10.1992 0C6.21016 0 2.76508 2.28914 1.08789 5.62086L4.38563 8.18203C5.21297 5.72289 7.50211 3.94367 10.1992 3.94367Z" fill="#272F32"/>
</g>
<defs>
<clipPath id="clip0_19_4100">
<rect width="20" height="20.4688" fill="white"/>
</clipPath>
</defs>
</svg>
