<svg width="20" height="21" viewBox="0 0 20 21" fill="none" xmlns="http://www.w3.org/2000/svg">
<g clip-path="url(#clip0_19_4094)">
<path d="M10 0.46875C7.34844 0.46875 4.80312 1.52297 2.92969 3.39766C1.05432 5.27309 0.000519484 7.81653 0 10.4688C0 13.1198 1.05469 15.6652 2.92969 17.5398C4.80312 19.4145 7.34844 20.4688 10 20.4688C12.6516 20.4688 15.1969 19.4145 17.0703 17.5398C18.9453 15.6652 20 13.1198 20 10.4688C20 7.81766 18.9453 5.27234 17.0703 3.39766C15.1969 1.52297 12.6516 0.46875 10 0.46875Z" fill="#272F32"/>
<path d="M4.52645 10.3631C7.44208 9.09313 9.38583 8.25579 10.3577 7.85125C13.1358 6.6961 13.7124 6.49547 14.089 6.48868C14.1718 6.48735 14.3561 6.50782 14.4765 6.60508C14.5765 6.68711 14.6046 6.79805 14.6186 6.87594C14.6311 6.95375 14.6483 7.1311 14.6343 7.26954C14.4843 8.85079 13.8327 12.688 13.5015 14.4591C13.3624 15.2084 13.0858 15.4597 12.8186 15.4842C12.2374 15.5377 11.7968 15.1005 11.2343 14.7319C10.3546 14.1548 9.8577 13.7958 9.00302 13.2328C8.01552 12.5822 8.65614 12.2245 9.21864 11.6402C9.36552 11.4872 11.9249 9.15985 11.9733 8.94875C11.9796 8.92235 11.9858 8.82391 11.9265 8.77203C11.8686 8.72 11.7827 8.73782 11.7202 8.75188C11.6311 8.77188 10.2265 9.70125 7.50145 11.5398C7.10302 11.8139 6.74208 11.9475 6.41708 11.9405C6.06083 11.9328 5.37333 11.7386 4.86239 11.5727C4.23739 11.3691 3.73895 11.2614 3.7827 10.9156C3.80458 10.7356 4.05302 10.5514 4.52645 10.3631Z" fill="#E5E1DE"/>
</g>
<defs>
<clipPath id="clip0_19_4094">
<rect width="20" height="20" fill="white" transform="translate(0 0.46875)"/>
</clipPath>
</defs>
</svg>
