<svg width="20" height="21" viewBox="0 0 20 21" fill="none" xmlns="http://www.w3.org/2000/svg">
<g clip-path="url(#clip0_19_4083)">
<mask id="mask0_19_4083" style="mask-type:luminance" maskUnits="userSpaceOnUse" x="0" y="0" width="20" height="21">
<path d="M0 0.46875H20V20.4688H0V0.46875Z" fill="white"/>
</mask>
<g mask="url(#mask0_19_4083)">
<mask id="mask1_19_4083" style="mask-type:luminance" maskUnits="userSpaceOnUse" x="0" y="0" width="20" height="21">
<path d="M20 0.46875H0V20.4688H20V0.46875Z" fill="white"/>
</mask>
<g mask="url(#mask1_19_4083)">
<path d="M0 10.0687C0 5.54297 0 3.28047 1.40625 1.875C2.8125 0.46875 5.07422 0.46875 9.6 0.46875H10.4C14.9258 0.46875 17.1883 0.46875 18.5938 1.875C20 3.28125 20 5.54297 20 10.0687V10.8687C20 15.3945 20 17.657 18.5938 19.0625C17.1875 20.4688 14.9258 20.4688 10.4 20.4688H9.6C5.07422 20.4688 2.81172 20.4688 1.40625 19.0625C0 17.6562 0 15.3953 0 10.8695V10.0695V10.0687Z" fill="#272F32"/>
<path d="M10.1763 14.0761C6.30227 14.0761 4.0923 11.4199 4 7H5.94102C6.00477 10.2439 7.43514 11.6178 8.56867 11.9014V7H10.3961V9.79765C11.5151 9.67745 12.6911 8.40248 13.0875 7H14.915C14.6109 8.72786 13.3359 10.0028 12.4288 10.5274C13.3359 10.9524 14.7875 12.0641 15.34 14.0761H13.3286C12.897 12.7301 11.8199 11.6889 10.3961 11.5474V14.0761H10.177H10.1763Z" fill="#E5E1DE"/>
</g>
</g>
</g>
<defs>
<clipPath id="clip0_19_4083">
<rect y="0.46875" width="20" height="20" rx="10" fill="white"/>
</clipPath>
</defs>
</svg>
