<svg width="20" height="21" viewBox="0 0 20 21" fill="none" xmlns="http://www.w3.org/2000/svg">
<g clip-path="url(#clip0_19_4097)">
<path d="M5.28613 17.5643L5.61308 17.7278C6.97558 18.5452 8.50144 18.9267 10.0274 18.9267C14.8231 18.9267 18.7468 15.003 18.7468 10.2073C18.7468 7.91845 17.8203 5.68407 16.1855 4.04915C14.5506 2.41423 12.3707 1.48782 10.0274 1.48782C5.23167 1.48782 1.30785 5.41157 1.36238 10.2618C1.36238 11.8967 1.85285 13.4771 2.67027 14.8395L2.88824 15.1665L2.01636 18.3818L5.28613 17.5643Z" fill="#272F32"/>
<path d="M17.112 3.17719C15.2591 1.26984 12.6977 0.234375 10.0819 0.234375C4.52328 0.234375 0.0545313 4.75758 0.108984 10.2617C0.108984 12.0056 0.599453 13.6951 1.41695 15.2209L0 20.3981L5.28617 19.0357C6.75758 19.8532 8.39242 20.2347 10.0274 20.2347C15.5316 20.2347 20.0003 15.7114 20.0003 10.2073C20.0003 7.53695 18.9648 5.03008 17.112 3.17719ZM10.0819 18.5453C8.61047 18.5453 7.13906 18.1639 5.88563 17.4009L5.55867 17.2374L2.39789 18.0548L3.21531 14.9486L2.99734 14.6216C0.599453 10.7523 1.74391 5.62953 5.66766 3.23164C9.59141 0.833828 14.6596 1.97828 17.0575 5.90203C19.4553 9.82578 18.3109 14.894 14.3872 17.2919C13.1337 18.1093 11.6078 18.5453 10.0819 18.5453ZM14.8776 12.4962L14.2781 12.2237C14.2781 12.2237 13.4063 11.8423 12.8613 11.5698C12.8067 11.5698 12.7523 11.5152 12.6977 11.5152C12.5342 11.5152 12.4252 11.5698 12.3163 11.6243C12.3163 11.6243 12.2618 11.6787 11.4988 12.5507C11.4443 12.6597 11.3353 12.7142 11.2263 12.7142H11.1718C11.1173 12.7142 11.0084 12.6597 10.9538 12.6052L10.6813 12.4962C10.0819 12.2237 9.53695 11.8967 9.10094 11.4608C8.99195 11.3518 8.82844 11.2428 8.71945 11.1338C8.33797 10.7523 7.95649 10.3163 7.68406 9.82586L7.62953 9.71687C7.57508 9.66234 7.57508 9.60789 7.52055 9.4989C7.52055 9.38992 7.52055 9.28094 7.57508 9.2264C7.57508 9.2264 7.79305 8.95391 7.95649 8.79047C8.06555 8.68141 8.12 8.51797 8.22899 8.40898C8.33797 8.24547 8.3925 8.0275 8.33797 7.86398C8.28352 7.59148 7.62953 6.12008 7.4661 5.79312C7.35703 5.62961 7.24813 5.57516 7.08461 5.52062H6.48516C6.37609 5.52062 6.26719 5.57516 6.15813 5.57516L6.10359 5.62961C5.99461 5.68414 5.88563 5.79312 5.77664 5.84758C5.66766 5.95664 5.61313 6.06555 5.50414 6.17461C5.12266 6.66508 4.90469 7.26453 4.90469 7.86398C4.90469 8.29992 5.01367 8.73594 5.17719 9.11742L5.23172 9.28094C5.72219 10.3163 6.3761 11.2428 7.24813 12.0602L7.4661 12.2782C7.62953 12.4417 7.79305 12.5507 7.90203 12.7141C9.04649 13.6952 10.3544 14.4036 11.8258 14.7851C11.9893 14.8395 12.2073 14.8395 12.3708 14.8941H12.9157C13.1882 14.8941 13.5152 14.7851 13.7332 14.6761C13.8966 14.5671 14.0056 14.5671 14.1146 14.4581L14.2237 14.3491C14.3327 14.2401 14.4416 14.1856 14.5506 14.0766C14.6596 13.9677 14.7686 13.8587 14.8231 13.7496C14.9321 13.5316 14.9866 13.2591 15.0411 12.9867V12.6052C15.0411 12.6052 14.9866 12.5507 14.8776 12.4962Z" fill="#272F32"/>
<path d="M14.2782 12.2238L14.8777 12.4963C14.9867 12.5507 15.0412 12.6052 15.0412 12.6052V12.9867L15.041 12.9879C14.9865 13.2599 14.9321 13.5319 14.8232 13.7496C14.7687 13.8587 14.6597 13.9677 14.5507 14.0766C14.4417 14.1856 14.3328 14.2401 14.2238 14.3491L14.1147 14.4581C14.0057 14.5671 13.8967 14.5671 13.7333 14.6761C13.5153 14.7851 13.1883 14.8941 12.9158 14.8941H12.3709C12.2074 14.8395 11.9894 14.8395 11.8259 14.7851C10.3545 14.4036 9.04658 13.6952 7.90213 12.7141C7.79315 12.5507 7.62963 12.4417 7.46619 12.2782L7.24822 12.0602C6.37619 11.2428 5.72229 10.3163 5.23182 9.28094L5.17729 9.11743C5.01377 8.73594 4.90479 8.29993 4.90479 7.86399C4.90479 7.26454 5.12275 6.66508 5.50424 6.17461C5.61322 6.06555 5.66775 5.95665 5.77674 5.84758C5.88572 5.79313 5.99471 5.68415 6.10369 5.62961L6.15822 5.57516C6.26729 5.57516 6.37619 5.52063 6.48525 5.52063H7.08471C7.24822 5.57516 7.35713 5.62961 7.46619 5.79313C7.62963 6.12008 8.28361 7.59149 8.33807 7.86399C8.3926 8.0275 8.33807 8.24547 8.22908 8.40899C8.1201 8.51797 8.06565 8.68141 7.95658 8.79047C7.79315 8.95391 7.57518 9.22641 7.57518 9.22641C7.52064 9.28094 7.52065 9.38993 7.52065 9.49891C7.57518 9.60789 7.57518 9.66235 7.62963 9.71688L7.68416 9.82586C7.95658 10.3163 8.33807 10.7523 8.71955 11.1338C8.82854 11.2428 8.99205 11.3518 9.10104 11.4608C9.53705 11.8967 10.082 12.2238 10.6814 12.4963L10.9539 12.6052C11.0085 12.6597 11.1174 12.7142 11.1719 12.7142H11.2264C11.3354 12.7142 11.4444 12.6597 11.4989 12.5507C12.2619 11.6788 12.3163 11.6243 12.3163 11.6243C12.4253 11.5698 12.5343 11.5152 12.6978 11.5152C12.7524 11.5152 12.8068 11.5698 12.8613 11.5698C13.4063 11.8423 14.2782 12.2238 14.2782 12.2238Z" fill="#E5E1DE"/>
</g>
<defs>
<clipPath id="clip0_19_4097">
<rect width="20" height="20.2344" fill="white" transform="translate(0 0.234375)"/>
</clipPath>
</defs>
</svg>
